<?xml version="1.0" standalone="no"?>
<!DOCTYPE svg PUBLIC "-//W3C//DTD SVG 20010904//EN"
 "http://www.w3.org/TR/2001/REC-SVG-20010904/DTD/svg10.dtd">
<svg version="1.0" xmlns="http://www.w3.org/2000/svg"
 width="1784.000000pt" height="1784.000000pt" viewBox="0 0 1784.000000 1784.000000"
 preserveAspectRatio="xMidYMid meet">
<metadata>
Created by potrace 1.14, written by Peter Selinger 2001-2017
</metadata>
<g transform="translate(0.000000,1784.000000) scale(0.100000,-0.100000)"
fill="#000000" stroke="none">
<path d="M5849 17713 c-14 -15 -28 -35 -31 -43 -3 -8 -37 -64 -77 -124 -39
-60 -78 -130 -86 -155 -9 -25 -23 -59 -31 -74 -8 -16 -14 -36 -14 -45 0 -38
-93 -369 -130 -461 -61 -156 -127 -516 -99 -546 17 -18 9 -23 -31 -18 -46 6
-51 -6 -24 -59 14 -28 15 -43 4 -122 -6 -50 -19 -127 -27 -171 -8 -44 -19
-100 -24 -125 -4 -25 -17 -94 -29 -155 -11 -60 -30 -159 -41 -220 -10 -60 -24
-128 -29 -150 -5 -22 -10 -83 -10 -136 0 -123 -6 -153 -40 -189 -15 -16 -35
-41 -44 -55 -9 -14 -25 -29 -34 -33 -9 -4 -51 -30 -92 -58 -115 -77 -180 -112
-245 -129 -33 -8 -78 -22 -100 -29 -22 -8 -78 -26 -124 -40 -46 -14 -90 -31
-97 -37 -8 -6 -46 -15 -85 -19 -80 -9 -101 -25 -68 -52 12 -10 30 -18 40 -18
10 0 69 -14 131 -31 147 -39 340 -76 451 -85 100 -8 105 -14 57 -78 -35 -46
-35 -49 -14 -70 17 -18 74 -22 74 -6 0 6 7 10 15 10 8 0 15 -5 15 -11 0 -8
-53 -83 -71 -99 -33 -31 -271 -380 -333 -490 -73 -131 -138 -277 -158 -355
-11 -43 -24 -88 -30 -100 -14 -24 -96 -112 -293 -312 -191 -193 -227 -237
-223 -265 4 -28 54 -56 71 -39 6 6 21 11 34 11 13 0 49 8 80 19 32 10 81 23
108 29 55 11 212 66 287 101 59 27 67 27 39 -1 -12 -13 -87 -90 -167 -171 -90
-92 -144 -155 -142 -165 2 -9 15 -21 30 -26 28 -10 59 2 144 59 17 11 70 45
118 75 48 30 110 70 138 88 28 18 52 31 53 30 4 -4 -30 -268 -44 -346 -18 -94
-31 -370 -20 -399 17 -45 13 -122 -9 -171 -12 -26 -33 -78 -48 -117 -15 -38
-32 -77 -39 -85 -21 -24 -96 -172 -91 -178 3 -2 20 12 39 32 19 20 48 39 64
42 26 5 31 2 42 -25 7 -17 19 -35 27 -42 20 -16 62 -3 70 24 3 12 14 33 24 47
9 14 23 42 29 62 14 43 53 78 87 78 60 0 120 -53 184 -162 24 -40 65 -95 92
-123 26 -27 48 -57 48 -65 0 -9 8 -27 18 -40 32 -47 14 -258 -39 -450 -18 -66
-49 -225 -66 -333 -4 -28 -1 -42 12 -57 15 -16 17 -33 13 -107 -6 -98 6 -159
47 -237 14 -27 25 -56 25 -63 0 -8 11 -39 25 -69 14 -30 25 -57 25 -60 0 -4
44 -97 99 -208 54 -110 111 -227 126 -259 15 -32 42 -78 61 -102 40 -53 162
-251 228 -370 6 -11 25 -40 42 -65 17 -25 41 -65 53 -90 11 -25 35 -63 51 -85
17 -22 41 -61 55 -86 13 -26 31 -49 39 -52 8 -3 41 -44 75 -91 33 -47 70 -95
81 -106 11 -11 20 -23 20 -27 0 -5 23 -33 51 -63 27 -30 57 -68 66 -85 31 -57
68 -97 106 -112 22 -9 66 -46 105 -88 81 -88 143 -136 242 -189 41 -21 86 -48
99 -58 17 -13 41 -18 87 -18 66 0 80 -10 60 -43 -8 -12 -8 -22 0 -35 14 -22
68 -21 187 3 l88 18 32 -24 c25 -18 46 -24 94 -25 67 -2 110 -22 214 -101 67
-50 80 -65 95 -109 13 -39 10 -44 -28 -44 -16 0 -38 -5 -49 -11 -15 -8 -54 -5
-150 10 -159 26 -193 26 -316 2 -142 -28 -254 -85 -334 -170 -34 -36 -41 -39
-155 -60 -131 -24 -235 -66 -271 -110 -27 -33 -33 -27 -23 27 4 23 3 104 -2
178 -8 116 -7 141 6 169 13 26 16 70 16 212 0 98 -5 198 -11 223 -13 59 -108
200 -157 233 -45 32 -73 34 -97 7 -10 -11 -22 -17 -26 -14 -15 9 2 116 27 170
24 51 31 94 16 94 -4 0 -13 15 -20 34 -7 18 -21 41 -32 51 -11 10 -20 23 -20
30 0 30 -86 37 -129 11 -6 -4 -35 -10 -63 -13 -28 -3 -58 -13 -68 -22 -9 -9
-37 -32 -62 -53 -36 -29 -52 -53 -82 -125 -47 -113 -139 -249 -241 -356 -44
-46 -109 -118 -144 -160 -36 -42 -69 -73 -74 -70 -6 3 -8 2 -4 -3 7 -12 -15
-120 -43 -209 -12 -38 -30 -109 -41 -157 -10 -47 -25 -103 -32 -125 l-12 -38
-55 3 c-55 3 -56 3 -112 -52 -31 -31 -59 -56 -62 -56 -3 0 -6 30 -6 68 0 47 6
78 19 103 19 36 23 123 21 460 -1 48 6 117 15 154 13 58 73 222 120 330 7 17
25 73 40 125 42 148 74 241 100 290 49 93 60 136 85 335 6 50 17 115 24 145
10 45 10 61 0 85 -7 17 -16 51 -19 77 -8 61 -25 78 -78 78 -45 0 -180 -23
-209 -35 -10 -4 -24 -28 -32 -54 -7 -25 -24 -63 -37 -83 -20 -31 -30 -37 -60
-38 -21 0 -42 -7 -50 -16 -27 -32 -145 -79 -153 -60 -3 6 -22 -7 -43 -30 -21
-23 -66 -60 -101 -84 -38 -25 -164 -144 -315 -298 -139 -142 -279 -283 -312
-315 -33 -32 -92 -89 -131 -127 -80 -76 -284 -375 -322 -470 -13 -31 -38 -81
-56 -111 l-33 -55 -12 -215 c-6 -118 -16 -264 -21 -325 -6 -61 -10 -147 -10
-191 0 -75 2 -82 25 -97 24 -16 35 -59 18 -69 -5 -3 -33 -8 -63 -11 -30 -4
-60 -12 -67 -19 -6 -6 -19 -56 -29 -110 -13 -82 -15 -134 -9 -310 11 -291 7
-443 -13 -642 l-18 -170 -39 -3 c-22 -2 -73 -20 -114 -40 -79 -39 -84 -44
-256 -266 -76 -97 -124 -212 -130 -305 -2 -49 -16 -100 -55 -201 -91 -240
-207 -642 -250 -865 -39 -203 -69 -369 -80 -440 -6 -38 -31 -155 -57 -260 -44
-180 -49 -192 -87 -236 -23 -25 -68 -90 -100 -145 -76 -127 -154 -232 -234
-314 -35 -36 -74 -80 -88 -97 -29 -38 -40 -41 -49 -13 -9 28 -29 25 -51 -7
-29 -44 -74 -135 -74 -150 0 -16 -13 -37 -110 -173 -85 -119 -146 -231 -189
-346 -16 -43 -54 -142 -84 -219 -82 -205 -157 -456 -157 -523 0 -19 7 -49 16
-68 17 -35 16 -68 -5 -164 -14 -62 -13 -174 1 -205 7 -15 19 -25 33 -25 32 0
45 -19 45 -67 l0 -43 3008 0 3007 0 -6 82 c-3 53 -19 127 -42 203 -20 66 -47
174 -61 240 -42 210 -132 588 -186 785 -28 103 -57 327 -70 555 -14 230 -10
567 6 572 7 2 17 -10 22 -27 11 -31 32 -41 32 -15 0 9 -6 26 -14 38 -7 12 -14
41 -15 65 -1 24 -7 55 -13 70 -7 17 -12 132 -13 302 -2 155 -7 292 -13 315
-21 76 -25 168 -10 197 l15 27 24 -42 c27 -47 153 -177 172 -177 7 0 71 -33
142 -73 145 -82 134 -67 171 -227 9 -41 47 -167 85 -280 71 -215 96 -304 149
-535 63 -272 101 -431 119 -505 11 -41 17 -89 14 -107 -7 -43 29 -153 78 -234
21 -36 39 -73 39 -82 0 -8 4 -18 9 -21 5 -4 14 -39 20 -79 13 -84 41 -176 82
-266 16 -35 29 -72 29 -82 0 -10 -20 -30 -51 -48 -27 -18 -58 -46 -67 -63 -9
-17 -28 -45 -43 -62 -21 -25 -79 -110 -111 -160 -57 -90 -170 -301 -183 -343
l-6 -23 534 0 535 0 6 31 c3 17 6 51 6 75 0 25 4 52 9 62 16 30 73 155 101
222 50 118 90 194 135 255 74 100 124 210 140 311 8 49 15 103 15 121 0 18 10
51 21 73 19 36 21 51 15 115 l-7 74 73 83 c73 84 237 250 429 433 58 55 119
116 135 135 70 84 240 268 275 298 27 23 40 44 45 70 9 49 26 81 81 153 25 33
58 84 74 112 23 43 29 48 34 32 23 -72 117 -292 144 -335 28 -47 27 -63 -9
-98 -34 -35 -33 -19 -31 -378 l2 -212 -57 -138 c-114 -281 -338 -683 -546
-984 -138 -201 -181 -266 -241 -366 -37 -61 -69 -118 -73 -128 -6 -15 80 -16
1144 -16 l1150 0 29 24 c15 13 66 39 113 57 47 18 96 40 110 50 14 9 48 24 75
34 28 9 64 25 80 35 17 11 50 22 73 26 23 4 45 10 47 15 5 7 12 103 35 454 17
254 32 388 75 645 14 80 25 182 25 227 0 85 26 431 35 471 3 12 10 91 16 175
5 83 15 211 20 282 6 72 14 459 19 860 13 1014 22 1213 76 1590 14 99 29 212
34 250 5 39 13 104 19 145 6 41 18 127 26 190 8 63 22 153 30 200 8 47 21 135
30 195 23 164 69 304 92 281 10 -10 5 -171 -7 -216 -12 -44 -29 -152 -40 -255
-5 -44 -20 -168 -34 -275 -14 -107 -32 -258 -41 -335 -10 -80 -22 -144 -30
-150 -29 -23 -48 -294 -45 -645 0 -102 -4 -248 -10 -325 -7 -77 -16 -412 -20
-745 -9 -556 -19 -841 -34 -930 -3 -19 -13 -143 -21 -275 -9 -132 -18 -256
-20 -275 -3 -19 -10 -107 -15 -195 -6 -88 -17 -198 -25 -245 -47 -260 -89
-571 -87 -645 1 -44 -3 -111 -9 -149 -6 -38 -12 -144 -13 -235 l-1 -166 -25
-1 c-52 -2 -206 -95 -218 -131 -3 -10 529 -13 2636 -13 l2639 0 37 33 c133
116 126 106 142 191 21 108 35 125 103 126 l53 0 -6 34 c-4 18 -25 78 -47 132
-57 140 -131 325 -169 424 -18 47 -55 134 -82 195 -28 60 -72 176 -100 259
-47 143 -48 150 -34 181 14 29 14 38 0 84 -12 43 -13 58 -3 86 12 32 11 37
-13 62 -32 34 -54 115 -63 236 -6 72 -4 92 9 112 17 26 21 71 7 79 -27 17
-145 360 -201 586 -21 85 -45 173 -53 195 -8 22 -29 94 -47 160 -121 445 -120
443 -265 750 -114 240 -295 477 -521 680 -49 44 -117 108 -153 142 -35 35 -67
63 -71 63 -4 0 -10 7 -13 14 -9 23 19 9 95 -46 68 -48 91 -57 103 -37 16 24
-9 57 -81 109 -42 30 -84 62 -95 70 -105 85 -162 135 -218 189 -209 205 -402
380 -445 405 -27 16 -64 32 -83 36 -40 9 -113 -7 -113 -26 0 -20 15 -25 47
-14 24 9 39 6 88 -15 49 -22 88 -56 229 -198 94 -95 184 -187 200 -205 31 -36
30 -55 -1 -25 -40 38 -74 63 -84 63 -6 0 -9 7 -5 15 3 10 -1 15 -12 15 -21 0
-84 58 -77 71 4 5 -3 9 -15 9 -12 0 -54 20 -93 43 -72 44 -209 100 -322 133
-33 9 -154 47 -270 84 -115 38 -271 87 -345 111 -74 23 -160 56 -190 72 -30
17 -100 53 -155 80 -55 28 -156 82 -225 122 -196 112 -251 140 -375 189 -194
77 -509 247 -580 314 -16 16 -52 58 -78 95 -26 37 -52 67 -56 67 -10 0 -80 93
-100 133 -17 32 -45 32 -49 1 -3 -24 22 -67 95 -161 44 -57 50 -70 42 -90 -5
-13 -9 -55 -9 -92 0 -37 -4 -71 -9 -76 -6 -6 -24 -46 -41 -90 -18 -44 -41
-100 -53 -125 -11 -25 -31 -74 -44 -110 -13 -36 -28 -74 -33 -85 -21 -43 -90
-257 -119 -365 -16 -63 -44 -169 -61 -235 -18 -66 -50 -187 -72 -270 -67 -254
-203 -655 -353 -1040 -47 -121 -161 -421 -216 -570 -63 -166 -216 -469 -333
-655 -36 -58 -132 -215 -212 -350 -173 -289 -248 -407 -352 -553 -42 -60 -95
-137 -117 -171 -89 -140 -107 -167 -111 -163 -6 5 15 393 25 462 5 33 6 66 4
73 -7 16 -22 15 -29 -1 -6 -16 -51 -223 -62 -282 -7 -39 -30 -85 -43 -85 -14
0 -29 94 -34 225 -3 77 -8 157 -12 177 -8 52 5 125 23 132 9 3 26 -5 40 -19
14 -14 27 -25 29 -25 10 0 4 37 -9 55 -22 33 -75 174 -102 275 -60 226 -95
340 -128 423 -32 79 -66 194 -60 200 5 4 -3 26 -32 92 -7 17 -25 71 -40 120
-14 50 -33 106 -40 125 -7 19 -19 58 -25 85 -7 28 -19 61 -28 74 -12 19 -15
49 -14 128 1 90 -1 103 -15 103 -9 0 -30 10 -45 23 -23 18 -42 62 -102 237
-40 118 -85 248 -99 288 -15 40 -34 103 -42 140 -14 62 -40 113 -70 138 -15
12 88 116 451 459 110 104 211 201 225 217 37 41 201 178 214 178 6 1 22 18
36 40 14 21 129 144 255 272 226 229 337 353 430 479 26 35 53 68 61 72 8 4
14 16 14 25 1 20 23 52 37 52 6 0 8 20 5 49 -6 64 14 107 118 251 87 121 118
174 177 305 20 44 55 121 78 170 24 50 52 112 64 139 l21 49 57 -89 c77 -120
321 -486 333 -501 6 -7 27 -15 47 -18 21 -4 57 -15 80 -26 24 -10 45 -19 48
-19 15 0 -25 52 -84 110 -37 36 -97 108 -133 160 -37 52 -76 106 -86 119 -21
26 -18 71 4 71 18 0 18 37 0 47 -8 4 -29 37 -47 73 -58 115 -177 238 -284 292
-22 12 -56 35 -77 52 -20 17 -60 40 -90 50 -29 10 -66 24 -83 31 -48 21 -97
35 -117 35 -11 0 -26 6 -33 14 -16 15 -140 30 -158 19 -7 -4 -37 -9 -67 -9
-30 -1 -67 -5 -82 -9 -25 -6 -28 -5 -28 16 0 48 -56 268 -81 319 -22 43 -38
131 -41 225 -3 62 -1 70 15 67 13 -2 17 4 17 28 0 16 2 30 5 30 17 0 190 -104
222 -133 23 -20 62 -35 135 -53 32 -8 82 -30 111 -49 46 -31 58 -34 80 -26 42
16 36 53 -15 92 -64 48 -154 149 -218 243 -8 12 -31 44 -51 72 -64 88 -59 104
20 59 23 -14 49 -25 55 -25 7 0 50 -22 96 -50 46 -27 86 -50 89 -50 3 0 58
-34 120 -75 130 -85 155 -91 166 -42 5 17 9 38 9 45 1 8 11 22 24 32 33 27 27
45 -22 74 -54 31 -77 68 -106 165 -20 65 -21 79 -11 120 7 25 18 71 25 101 27
111 67 254 72 259 3 3 15 -1 27 -9 36 -22 159 -85 202 -103 22 -9 72 -29 112
-46 82 -34 171 -95 203 -141 28 -39 54 -39 70 0 14 34 18 27 -72 124 -78 85
-113 128 -148 186 -124 203 -123 199 -51 192 41 -4 55 0 87 22 21 14 60 33 86
42 38 12 57 27 91 71 23 30 61 76 85 102 122 131 218 289 267 441 15 47 31 90
35 95 5 6 10 33 12 60 8 85 39 329 44 345 5 12 8 12 20 -4 17 -24 19 -334 3
-541 -10 -131 -47 -340 -75 -427 -9 -29 -13 -60 -9 -78 19 -89 105 -34 164
105 19 44 67 150 106 235 173 372 189 412 251 650 33 128 68 221 82 220 4 -1
27 -31 52 -67 63 -93 134 -162 208 -201 43 -23 75 -50 102 -85 22 -29 45 -57
50 -64 6 -7 10 -17 10 -23 0 -15 56 16 64 35 12 33 5 48 -54 108 -81 83 -120
164 -113 232 5 47 3 54 -31 94 -40 47 -51 79 -42 114 3 12 -4 127 -15 255
l-22 233 26 27 c14 15 44 67 65 115 43 96 57 117 71 102 19 -22 62 -150 71
-213 5 -37 16 -101 25 -142 33 -158 43 -179 105 -209 19 -10 49 -26 65 -35 47
-25 72 -21 92 17 26 49 25 394 -1 572 -25 166 -24 203 7 295 40 121 51 236 43
453 -3 106 -9 215 -12 243 l-6 51 83 5 c46 3 107 12 134 21 28 8 75 22 105 31
75 22 92 37 94 83 l1 38 -110 6 c-60 4 -121 10 -135 14 -42 14 -168 95 -189
121 -11 13 -49 85 -86 159 -36 74 -70 137 -75 140 -24 15 -40 73 -40 147 0 66
-6 93 -35 169 -19 50 -35 107 -35 128 0 45 -78 352 -93 367 -4 4 -7 16 -7 27
0 19 4 19 93 11 138 -13 337 -11 366 5 22 12 22 14 7 29 -13 13 -37 17 -101
18 -46 0 -90 5 -97 11 -7 6 -17 11 -21 11 -5 0 -11 3 -15 6 -3 3 0 6 6 6 7 0
12 9 12 21 0 21 -50 49 -87 49 -10 0 -50 20 -88 45 -41 26 -105 56 -155 71
-136 42 -203 68 -207 81 -3 7 21 29 52 49 77 49 165 125 255 220 41 43 151
156 246 249 166 165 303 334 356 440 11 22 28 49 38 60 19 21 36 50 110 185
65 120 76 144 104 244 28 94 32 136 16 165 -10 19 -64 27 -240 37 -118 6 -204
15 -220 24 -8 4 -145 10 -305 14 -657 14 -1051 34 -1205 60 -246 42 -462 68
-515 61 -47 -5 -52 -4 -99 35 -26 22 -56 40 -65 40 -9 1 -31 9 -50 19 -32 17
-33 19 -15 29 11 6 37 14 59 18 22 4 54 16 71 28 17 12 56 38 88 59 54 36 109
98 121 138 4 10 13 19 20 19 18 0 9 27 -18 58 -25 27 -31 27 -110 3 -108 -33
-170 -48 -247 -61 -41 -7 -97 -16 -125 -21 -107 -20 -151 -14 -208 25 -65 45
-67 45 -367 105 -305 61 -416 74 -572 68 -201 -8 -481 -60 -591 -111 -87 -40
-99 -34 -45 22 45 47 110 132 159 207 14 22 45 62 68 89 l42 49 67 1 c65 1 67
2 64 26 -2 14 -5 26 -6 28 -2 1 -59 9 -128 17 -127 15 -217 10 -328 -15 -84
-20 -241 -106 -350 -193 -115 -92 -163 -149 -211 -250 -36 -78 -51 -83 -114
-39 -166 114 -307 173 -485 204 -97 17 -150 19 -338 16 l-223 -3 -27 -31 c-34
-40 -87 -52 -102 -24 -18 34 -97 21 -281 -46 -112 -41 -147 -70 -129 -104 11
-21 17 -22 74 -16 33 3 106 9 161 12 55 3 115 10 133 16 18 5 58 13 89 17 70
10 408 -5 431 -18 16 -10 16 -10 -1 -11 -10 0 -16 -4 -13 -9 3 -5 -4 -12 -17
-16 -19 -7 -16 -9 18 -15 46 -7 48 -7 -105 -50 -125 -36 -185 -62 -213 -91
-10 -11 -32 -19 -50 -19 -18 0 -43 -7 -56 -16 -15 -11 -26 -13 -33 -6 -9 9
-25 7 -98 -14 -14 -3 -63 -24 -109 -46 -134 -63 -206 -87 -258 -86 -26 0 -100
-7 -163 -16 -178 -25 -223 -22 -305 18 -59 28 -90 54 -191 159 -67 69 -134
143 -150 166 -16 22 -72 99 -124 171 -116 159 -205 297 -302 465 -29 50 -118
234 -118 244 0 18 -52 71 -69 71 -27 0 -30 8 -19 46 14 51 6 59 -23 27z m5986
-1043 c-3 -5 -11 -10 -16 -10 -6 0 -7 5 -4 10 3 6 11 10 16 10 6 0 7 -4 4 -10z
m-4204 -2238 c21 -63 116 -253 166 -332 96 -150 183 -267 284 -380 56 -63 120
-137 142 -165 21 -27 77 -89 123 -137 50 -52 79 -89 71 -92 -8 -3 -7 -9 6 -19
32 -26 20 -64 -60 -186 -87 -132 -98 -139 -208 -139 -87 0 -158 -10 -265 -38
-93 -24 -151 -30 -163 -18 -11 11 -111 7 -115 -4 -7 -21 109 -79 131 -65 9 5
124 30 242 52 75 15 213 22 219 12 3 -5 -3 -11 -15 -14 -11 -3 -19 -12 -17
-20 5 -22 -122 -150 -332 -337 -25 -22 -50 -40 -56 -40 -14 0 -39 -28 -31 -36
9 -9 115 23 155 47 25 15 62 24 115 29 72 7 83 11 160 62 45 30 92 58 104 62
12 4 57 43 100 87 113 116 146 137 224 143 35 2 102 -2 149 -9 115 -19 182
-22 187 -10 9 27 -24 44 -107 55 -136 17 -219 33 -214 42 3 4 18 8 34 8 33 0
50 17 23 22 -14 3 -8 11 24 32 24 16 40 32 37 37 -3 5 2 9 10 9 8 0 21 8 28
19 18 25 41 15 109 -46 29 -26 74 -62 99 -78 69 -46 134 -101 232 -199 55 -54
123 -109 173 -140 85 -52 361 -284 512 -432 81 -79 83 -82 83 -128 0 -26 -5
-56 -10 -66 -6 -11 -13 -47 -17 -82 -4 -41 -12 -69 -24 -80 -12 -12 -16 -28
-13 -53 5 -39 3 -41 -26 -23 -16 10 -22 10 -33 -2 -20 -22 -53 -119 -83 -245
-47 -200 -141 -463 -202 -565 -12 -19 -28 -48 -37 -65 -58 -112 -279 -347
-464 -493 -14 -11 -21 -24 -17 -30 11 -19 123 43 219 121 47 39 77 48 37 12
-20 -18 -28 -41 -11 -30 16 9 -6 -53 -28 -81 -12 -15 -21 -33 -21 -41 0 -7
-11 -18 -25 -23 -15 -6 -32 -24 -40 -44 -9 -20 -26 -38 -45 -46 -49 -20 -38
-70 17 -70 23 0 264 106 470 207 73 35 137 62 142 59 5 -3 26 11 47 30 58 55
116 92 122 76 3 -10 9 -9 23 4 10 9 19 21 19 25 0 8 128 140 169 174 20 16 23
17 18 4 -5 -14 0 -16 34 -12 21 3 39 2 39 -2 0 -19 -173 -357 -215 -420 -49
-74 -134 -167 -145 -160 -4 2 -21 -13 -38 -34 -34 -42 -130 -119 -183 -147
-18 -9 -61 -19 -96 -22 -69 -5 -80 -17 -68 -70 5 -25 -1 -35 -60 -86 -63 -56
-81 -86 -50 -86 8 0 15 -6 15 -14 0 -15 30 -26 73 -26 15 0 62 16 103 35 41
19 81 35 89 35 7 0 17 5 20 11 5 7 16 2 32 -13 21 -20 35 -23 100 -22 68 0 72
-1 49 -13 -26 -14 -35 -33 -15 -33 28 0 -62 -112 -199 -247 -103 -102 -113
-116 -110 -145 2 -25 9 -33 31 -39 20 -5 27 -4 27 7 0 18 8 18 26 -1 9 -8 20
-15 25 -15 5 0 9 7 9 15 0 21 16 19 33 -5 10 -14 12 -33 7 -67 -10 -64 2 -148
25 -173 16 -18 17 -20 2 -14 -9 3 -17 1 -17 -4 0 -17 19 -25 38 -16 9 4 71 8
137 9 88 2 141 8 200 25 44 12 94 23 110 23 29 2 30 1 27 -37 -2 -21 1 -57 8
-80 10 -36 9 -51 -9 -104 -13 -37 -21 -87 -21 -126 0 -83 -21 -134 -71 -180
-36 -32 -40 -39 -34 -68 14 -64 19 -64 100 12 60 56 67 59 87 48 13 -7 25 -14
26 -15 4 -2 -38 -134 -83 -263 -27 -78 -39 -142 -31 -168 6 -18 44 -42 66 -42
6 0 10 10 10 23 0 12 7 33 16 45 8 12 21 32 28 45 6 12 43 69 80 127 100 152
100 152 114 184 7 16 15 26 18 23 3 -3 1 -14 -5 -25 -10 -18 -8 -36 19 -197 5
-27 9 -92 9 -143 1 -108 28 -192 62 -192 25 0 58 -79 99 -235 10 -39 37 -111
60 -160 29 -62 43 -106 45 -142 2 -41 18 -83 85 -217 45 -91 106 -200 134
-242 94 -142 89 -129 75 -171 -6 -21 -29 -67 -51 -102 -21 -34 -38 -66 -38
-70 0 -6 -30 -51 -115 -177 -89 -132 -209 -268 -497 -566 l-94 -97 8 47 c16
93 57 398 60 446 5 86 -17 60 -40 -46 -12 -57 -29 -134 -37 -173 -9 -38 -19
-95 -24 -125 -5 -30 -17 -91 -27 -135 l-18 -80 -144 -139 c-78 -77 -153 -156
-165 -175 -17 -28 -22 -32 -25 -18 -2 10 1 23 6 30 5 7 14 35 20 62 11 48 31
129 73 300 58 232 97 531 134 1010 19 240 20 358 3 353 -16 -6 -25 -51 -33
-163 -3 -49 -10 -124 -15 -165 -6 -41 -19 -156 -30 -255 -42 -377 -43 -381
-85 -600 -25 -126 -104 -449 -126 -514 -11 -30 -19 -62 -19 -72 0 -10 -9 -27
-20 -37 -11 -10 -18 -25 -15 -33 3 -8 -19 -42 -51 -79 -88 -102 -406 -420
-421 -420 -7 0 -17 9 -23 20 -20 37 -35 22 -48 -48 -13 -67 -11 -98 17 -263 5
-31 7 -74 4 -95 -3 -28 -1 -43 9 -52 12 -10 17 -5 28 28 7 22 16 40 20 40 9 0
44 -85 65 -160 8 -30 36 -109 61 -175 61 -160 94 -278 94 -343 0 -51 -16 -93
-56 -150 -23 -31 0 -30 49 4 49 33 70 28 77 -16 4 -20 21 -62 38 -95 32 -58
41 -108 23 -120 -6 -3 -38 -58 -72 -123 -34 -64 -78 -141 -98 -171 -91 -139
-130 -202 -261 -431 -146 -254 -253 -409 -402 -579 -49 -55 -88 -103 -88 -108
0 -19 -64 -85 -101 -103 -50 -26 -90 -25 -166 2 -44 15 -63 27 -63 39 0 23 44
138 71 185 12 22 33 59 45 84 l23 45 0 -74 c1 -60 6 -84 32 -137 22 -46 35
-64 50 -64 23 0 23 4 4 115 -11 59 -15 142 -14 250 1 89 -2 168 -6 175 -5 8
-9 68 -10 134 -2 149 -20 216 -71 266 -43 41 -57 73 -49 110 3 15 -1 47 -9 71
-9 24 -16 53 -16 65 0 11 -5 25 -12 32 -23 23 7 59 69 82 32 11 74 31 93 44
19 13 53 29 75 36 22 6 56 21 75 32 19 11 85 42 145 68 61 26 133 61 160 78
98 62 112 67 142 53 24 -11 29 -10 43 6 13 16 15 73 17 379 l2 359 -19 -53
c-10 -28 -29 -115 -41 -192 -20 -128 -24 -141 -48 -156 -14 -10 -32 -25 -39
-35 -12 -17 -15 -16 -70 8 -31 14 -64 32 -73 39 -18 16 -128 19 -210 5 -30 -6
-87 -13 -127 -16 -74 -7 -98 -23 -74 -47 19 -19 141 -25 231 -11 101 15 121
12 215 -34 55 -26 81 -33 116 -31 l45 3 0 -70 0 -70 -115 -57 c-63 -31 -137
-64 -164 -72 -75 -24 -167 -62 -323 -132 -79 -35 -147 -64 -152 -64 -6 0 -26
-14 -45 -31 -53 -46 -55 -78 -13 -201 40 -118 73 -236 80 -290 5 -33 3 -38
-26 -51 -56 -27 -159 -48 -297 -60 -115 -10 -135 -15 -138 -29 -6 -32 43 -41
213 -42 88 -1 181 2 207 5 54 8 63 1 73 -54 4 -21 16 -42 26 -48 11 -5 19 -16
19 -24 0 -8 7 -15 15 -15 32 0 -8 -128 -95 -300 -18 -35 -48 -105 -67 -155
-52 -135 -64 -143 -164 -104 -141 56 -190 98 -208 180 -11 47 -48 118 -117
223 -58 86 -94 224 -57 214 12 -3 80 29 87 41 11 17 -48 111 -103 164 -43 43
-50 55 -60 110 -18 110 -20 120 -31 257 -6 74 -14 146 -17 160 -6 25 -6 25
-13 -5 -4 -16 -8 -68 -9 -115 -2 -89 -22 -205 -39 -222 -15 -15 -47 10 -72 54
-32 58 -185 208 -280 274 -188 133 -440 260 -566 287 l-54 11 0 46 c0 34 10
66 41 125 40 76 57 101 142 201 20 25 37 49 37 54 0 15 74 86 120 115 60 38
122 97 202 193 65 77 98 100 98 68 0 -7 7 -20 16 -27 21 -18 89 -118 123 -183
15 -28 53 -98 83 -156 31 -58 70 -141 88 -185 42 -107 44 -110 69 -113 15 -3
21 2 21 16 0 33 -50 164 -101 267 -49 97 -68 129 -191 320 -32 49 -58 99 -58
110 0 31 37 85 137 198 51 57 105 122 119 143 15 21 50 64 78 94 49 51 125
160 160 229 11 20 12 32 6 36 -13 8 -40 -12 -40 -29 0 -13 -89 -126 -158 -202
-26 -28 -96 -108 -157 -177 -60 -70 -113 -127 -117 -127 -5 0 -8 31 -8 69 0
38 -7 88 -16 112 -9 25 -16 75 -16 117 0 61 -3 74 -19 83 -11 5 -19 20 -19 32
0 20 -17 94 -71 317 -11 47 -26 92 -33 100 -7 8 -27 53 -44 100 -17 47 -48
128 -70 180 -75 181 -127 354 -146 489 -4 25 -20 73 -36 107 -19 40 -30 78
-30 106 0 56 -21 88 -44 69 -9 -7 -16 -19 -16 -26 0 -19 -52 -13 -73 8 -16 16
-16 20 -3 46 9 16 53 61 98 101 46 41 122 114 170 165 47 50 126 119 175 153
48 34 94 67 102 73 25 22 115 50 166 53 29 2 61 9 73 15 11 6 30 11 41 11 11
0 35 16 52 35 35 38 72 47 67 18 -2 -14 4 -18 26 -18 25 0 33 -7 54 -49 14
-28 28 -81 34 -125 5 -42 15 -85 22 -96 16 -26 71 -196 85 -263 6 -29 11 -75
11 -101 0 -26 4 -72 9 -102 6 -30 15 -117 21 -194 12 -145 24 -212 59 -328 24
-81 24 -95 17 -387 -6 -223 -15 -296 -63 -499 -8 -35 -27 -130 -43 -210 -53
-273 -79 -341 -145 -377 -11 -6 -24 -20 -30 -32 -7 -16 -15 -20 -34 -15 l-25
6 24 -39 23 -39 2 -545 c1 -472 3 -551 17 -590 9 -25 19 -67 22 -95 3 -27 14
-61 25 -75 10 -14 21 -42 25 -62 8 -42 31 -51 41 -17 5 14 0 28 -16 45 -22 24
-23 29 -30 377 -4 193 -13 424 -19 512 -6 88 -12 188 -15 223 -5 87 16 165 90
327 45 98 119 348 161 539 31 144 35 152 64 148 21 -3 22 -1 15 30 -16 68 -6
392 12 374 2 -2 17 -48 33 -102 16 -55 47 -150 70 -213 89 -249 115 -390 94
-515 -8 -46 6 -58 47 -44 69 24 96 205 50 333 -12 33 -33 92 -46 130 -13 39
-40 108 -61 155 -50 117 -94 245 -94 274 0 14 -4 27 -9 30 -5 3 -15 30 -22 58
-6 29 -15 60 -19 68 -20 40 -51 133 -70 210 -12 47 -30 105 -41 130 -23 49
-41 169 -65 420 -17 181 -20 199 -70 346 -19 56 -34 117 -34 135 0 19 -9 53
-19 75 -10 23 -22 57 -26 75 -4 19 -12 39 -17 46 -5 7 -8 22 -6 35 4 22 5 22
13 3 5 -11 15 -26 22 -34 8 -7 11 -22 8 -32 -4 -11 -2 -19 4 -19 6 0 11 5 11
11 0 5 4 8 9 5 15 -10 39 4 44 26 8 27 -23 151 -40 161 -7 4 -13 14 -13 22 0
8 -11 22 -24 30 -15 10 -31 37 -41 70 l-17 54 36 43 c20 24 62 75 94 114 216
269 312 376 405 449 45 35 101 79 124 97 23 18 42 37 42 41 1 5 11 17 23 27
21 17 23 17 38 -2 13 -17 19 -18 42 -8 17 8 24 18 21 27 -4 10 -9 11 -16 4 -6
-6 -15 -11 -20 -11 -5 0 -2 7 7 15 8 8 21 12 29 9 10 -3 20 3 28 18 7 13 21
33 33 45 53 54 56 63 26 93 -37 37 -112 20 -222 -49 -108 -69 -268 -154 -275
-147 -3 2 7 12 21 22 15 9 36 30 48 47 l22 30 -43 -6 c-24 -3 -66 -20 -95 -38
-28 -18 -104 -59 -168 -90 -65 -32 -141 -73 -170 -92 -120 -76 -229 -126 -274
-127 -22 0 -123 -27 -225 -61 -235 -78 -288 -89 -431 -89 -113 0 -134 4 -208
40 -8 4 -30 27 -49 51 -40 52 -206 226 -244 254 -15 11 -31 31 -36 45 -15 37
-68 93 -80 85 -6 -3 -26 -1 -44 5 -30 10 -72 61 -107 128 -11 23 -19 33 -71
96 -26 32 -163 218 -199 271 -11 17 -79 129 -151 250 -72 121 -146 245 -164
275 -18 30 -46 80 -62 110 -16 30 -36 66 -45 80 -35 54 -181 340 -214 420 -85
204 -110 299 -83 315 7 5 5 13 -6 25 -22 24 -22 210 0 345 19 122 43 233 55
260 21 45 55 216 65 319 2 21 8 43 12 47 4 4 28 -1 52 -11 24 -11 48 -20 55
-20 6 0 17 -9 23 -19 10 -16 9 -28 -3 -63 -8 -25 -12 -55 -8 -72 6 -28 5 -29
-25 -23 -37 8 -38 4 -10 -24 16 -16 20 -31 18 -68 -3 -58 10 -86 23 -50 15 39
48 201 48 237 0 35 3 36 69 21 75 -17 97 4 69 66 -7 15 -17 24 -25 21 -16 -6
-43 33 -52 76 -4 17 -15 36 -26 42 -42 24 -56 49 -51 95 5 54 -11 94 -34 88
-31 -8 -88 108 -94 191 -5 69 -8 66 91 87 67 15 136 53 153 85 6 12 8 35 5 51
-9 42 12 63 112 110 100 47 157 51 265 15 109 -35 207 -64 261 -77 26 -6 47
-15 47 -18 0 -4 14 -6 30 -3 30 4 36 16 24 46 -3 9 -43 37 -88 61 -44 25 -88
50 -96 55 -26 15 -83 37 -168 66 l-83 27 -152 -10 c-149 -11 -154 -12 -232
-52 -87 -44 -105 -49 -105 -26 0 81 67 453 104 580 13 44 32 116 41 160 10 44
19 83 21 86 2 3 45 1 96 -6 268 -35 545 -52 563 -33 4 3 2 16 -5 27 -10 19
-20 21 -101 21 -109 0 -511 38 -523 50 -8 8 15 96 34 132 5 9 23 57 40 107 27
80 88 229 123 301 11 22 30 59 129 240 34 61 66 100 82 100 6 0 19 20 29 43
10 24 24 52 32 63 8 10 57 78 110 149 52 72 112 150 133 175 21 25 44 55 51
68 7 12 15 20 20 18 4 -3 6 -126 4 -274 -3 -149 0 -310 6 -358 12 -108 44
-210 77 -245 25 -26 31 -49 14 -49 -14 0 -12 -16 3 -32 12 -12 47 -80 47 -91
0 -3 20 -48 44 -99 74 -155 123 -292 178 -500 10 -37 38 -53 38 -23 0 17 50
40 60 28 4 -4 35 -51 69 -103 86 -129 114 -163 271 -325 235 -244 287 -301
355 -389 37 -48 78 -94 91 -103 13 -8 24 -21 24 -28 0 -9 8 -10 34 -1 42 13
59 37 47 68 -4 13 -11 41 -14 63 -6 40 -6 40 50 75 115 71 204 98 363 110 69
5 184 15 255 21 72 7 146 12 165 12 45 0 117 -32 123 -55 7 -26 42 -22 64 8
16 22 22 24 46 15 18 -7 25 -15 21 -26 -5 -11 1 -15 20 -15 14 0 47 -13 73
-30 26 -16 54 -30 63 -30 9 0 46 -18 83 -40 36 -22 70 -40 76 -40 5 0 19 -13
31 -30 24 -34 59 -39 85 -13 12 12 32 16 69 14 48 -2 90 5 180 28 35 9 96 55
96 72 0 4 -7 15 -16 24 -16 16 -66 13 -89 -5 -5 -5 -28 -10 -49 -11 -36 -4
-40 -1 -50 28 -6 17 -13 34 -16 36 -3 3 -41 10 -85 16 -44 6 -147 29 -230 51
-82 21 -175 43 -205 49 -30 6 -98 20 -150 33 -194 45 -528 26 -728 -43 -94
-32 -238 -120 -250 -151 -6 -16 -15 -28 -20 -28 -12 0 -66 82 -82 125 -28 70
-29 83 -10 118 23 42 22 44 -44 367 -24 118 -53 235 -65 260 -11 25 -30 92
-42 150 -20 96 -21 124 -16 325 7 264 26 477 72 845 41 319 48 355 78 386 26
27 32 24 48 -24z m-2779 -604 c-7 -7 -12 -8 -12 -2 0 14 12 26 19 19 2 -3 -1
-11 -7 -17z m-83 -142 c-7 -14 -16 -26 -20 -26 -5 0 0 13 9 29 20 36 27 34 11
-3z m-79 -146 c-7 -27 -18 -44 -30 -47 -19 -5 -37 -39 -26 -50 9 -9 -91 -183
-105 -183 -16 0 -10 20 36 116 41 85 125 217 133 209 2 -2 -2 -22 -8 -45z
m-200 -774 c0 -10 -104 -57 -118 -53 -11 2 3 13 38 30 50 25 80 33 80 23z
m-420 -146 c-20 -13 -33 -13 -25 0 3 6 14 10 23 10 15 0 15 -2 2 -10z m677
-197 c-3 -10 -5 -4 -5 12 0 17 2 24 5 18 2 -7 2 -21 0 -30z m611 -517 c2 -31
12 -62 30 -88 26 -40 26 -40 76 -33 47 6 65 -2 66 -27 0 -24 -203 -79 -222
-60 -5 5 -11 61 -14 125 -4 103 -3 117 13 126 34 20 48 9 51 -43z m8022 -157
c0 -15 -10 -40 -23 -55 l-23 -27 -13 31 c-7 16 -11 41 -8 54 3 20 5 19 12 -10
10 -41 25 -24 25 27 0 29 2 32 15 21 8 -7 15 -25 15 -41z m-57 -104 c-3 -9 -8
-14 -10 -11 -3 3 -2 9 2 15 9 16 15 13 8 -4z m-8632 -182 c-10 -17 -10 -16
-11 3 0 23 13 41 18 25 2 -6 -1 -18 -7 -28z m-28 -12 c-3 -22 -1 -41 5 -45 12
-7 5 -36 -9 -36 -10 0 -12 103 -2 113 11 11 11 9 6 -32z m-117 -77 c-19 -18
-21 -11 -4 19 7 14 13 17 15 10 3 -7 -3 -20 -11 -29z m8649 -491 c27 -90 95
-237 124 -266 21 -21 11 -28 -18 -13 -65 34 -160 173 -175 259 -5 28 -3 39 7
43 8 3 18 19 21 36 3 17 9 29 12 25 3 -3 16 -41 29 -84z m135 -103 c0 -5 -4
-10 -10 -10 -5 0 -10 5 -10 10 0 6 5 10 10 10 6 0 10 -4 10 -10z m-2041 -103
c29 -86 64 -509 57 -691 l-4 -130 -36 -31 c-48 -41 -204 -119 -441 -220 -60
-26 -118 -53 -129 -61 -11 -8 -30 -14 -42 -14 -12 0 -33 -9 -46 -20 -14 -10
-52 -29 -84 -41 -32 -12 -63 -25 -69 -29 -5 -4 -25 -11 -42 -15 -18 -3 -33
-11 -33 -16 0 -5 -17 -28 -39 -50 -21 -22 -69 -84 -107 -138 -41 -59 -80 -105
-98 -114 -67 -34 -231 -55 -318 -41 -62 11 -32 24 52 24 43 0 82 5 85 10 4 6
-17 10 -56 10 -49 0 -60 3 -51 12 18 18 15 27 -13 38 -19 7 -26 19 -31 50 -7
42 -13 47 -32 28 -9 -9 -12 -8 -12 5 0 10 -11 22 -24 27 l-23 9 21 45 c11 25
23 41 24 36 2 -6 8 -10 14 -10 5 0 6 9 3 22 -6 16 -4 20 8 15 11 -4 20 5 32
29 9 19 22 34 30 34 8 0 15 8 15 19 0 10 7 24 15 31 12 10 15 10 15 -1 0 -11
2 -11 8 -1 13 20 42 3 42 -25 0 -21 4 -24 21 -20 12 3 37 -2 55 -12 30 -16 54
-18 185 -15 123 3 158 8 194 24 24 11 49 20 55 20 54 0 200 168 200 231 0 24
-38 13 -73 -21 -15 -15 -36 -30 -48 -33 -41 -11 -16 35 43 77 67 48 97 83 130
151 54 110 109 209 124 226 20 23 3 33 -41 25 -40 -8 -65 12 -65 52 0 21 24
51 98 127 122 124 130 131 145 116 8 -8 8 -23 -2 -59 -8 -26 -17 -72 -21 -102
-5 -30 -18 -76 -29 -102 -12 -26 -22 -64 -24 -85 -2 -37 -1 -38 36 -41 28 -2
39 1 44 15 4 10 11 23 15 28 74 91 75 93 81 201 2 40 12 86 22 105 26 51 45
142 40 195 -2 33 2 59 15 85 18 34 63 79 80 79 4 0 17 -29 29 -63z m-169 -151
c-9 -59 -34 -96 -65 -96 -43 0 -30 44 33 113 14 15 29 27 32 27 4 0 4 -20 0
-44z m-410 -351 c-13 -14 -28 -25 -33 -25 -6 0 0 11 13 25 13 14 28 25 33 25
6 0 0 -11 -13 -25z m-240 -185 c0 -11 -60 -60 -115 -94 -25 -15 -69 -56 -97
-90 -138 -167 -183 -216 -200 -216 -10 0 -18 6 -18 14 0 8 -13 20 -30 28 -16
7 -30 16 -30 20 0 4 -7 5 -15 2 -10 -4 -4 14 16 53 41 77 50 86 133 136 39 24
81 50 94 58 19 12 24 12 31 0 5 -8 11 -9 15 -3 3 6 1 12 -6 14 -17 6 81 72
117 79 44 8 105 8 105 -1z m-103 -255 l-13 -50 36 3 c54 5 66 -15 51 -83 -11
-51 -34 -79 -58 -73 -4 1 -26 -2 -49 -6 -51 -9 -102 -11 -110 -3 -3 3 1 15 8
26 11 18 11 23 -2 31 -11 7 -11 10 -2 10 7 0 11 4 7 10 -7 12 -36 1 -52 -19
-6 -9 -15 -12 -20 -8 -4 5 0 13 9 18 9 5 38 39 64 77 26 37 68 91 93 120 46
53 46 53 49 25 1 -15 -3 -51 -11 -78z m-387 25 c-20 -13 -33 -13 -25 0 3 6 14
10 23 10 15 0 15 -2 2 -10z m1843 -167 l-38 -68 -3 37 c-3 37 11 75 52 135
l21 33 3 -35 c2 -25 -7 -53 -35 -102z m-1877 22 c-4 -14 -2 -25 3 -25 9 0 24
-30 18 -37 -8 -8 -37 10 -37 23 0 8 -5 14 -11 14 -6 0 -8 -7 -5 -16 3 -9 2
-12 -5 -9 -6 4 -19 -1 -29 -10 -18 -16 -18 -16 -13 4 5 19 66 81 79 81 4 0 3
-11 0 -25z m174 -89 c0 -3 -4 -8 -10 -11 -5 -3 -10 -1 -10 4 0 6 5 11 10 11 6
0 10 -2 10 -4z m-298 -38 c-7 -7 -12 -8 -12 -2 0 14 12 26 19 19 2 -3 -1 -11
-7 -17z m-32 -41 c0 -2 -14 -16 -32 -33 l-31 -29 22 33 c18 26 41 42 41 29z
m-81 -84 c-8 -9 -22 -25 -31 -35 -10 -10 -18 -22 -18 -28 0 -5 -4 -10 -10 -10
-18 0 -10 16 27 53 38 39 55 49 32 20z m2090 -134 c33 -65 34 -84 3 -56 -10
10 -25 17 -33 17 -8 0 -23 8 -34 16 -19 15 -18 16 13 9 l34 -7 -16 31 c-18 34
-20 51 -7 51 5 0 23 -28 40 -61z m-1439 -38 c0 -6 -4 -13 -10 -16 -5 -3 -10 1
-10 9 0 9 5 16 10 16 6 0 10 -4 10 -9z m-563 -23 c-3 -8 -6 -5 -6 6 -1 11 2
17 5 13 3 -3 4 -12 1 -19z m511 -66 c-12 -32 -28 -43 -28 -19 0 14 30 60 36
54 2 -2 -2 -18 -8 -35z m-503 -12 c3 -5 1 -10 -4 -10 -6 0 -11 5 -11 10 0 6 2
10 4 10 3 0 8 -4 11 -10z m-4675 -80 c0 -5 -2 -10 -4 -10 -3 0 -8 5 -11 10 -3
6 -1 10 4 10 6 0 11 -4 11 -10z m38 -47 c1 -25 -5 -71 -12 -102 -8 -31 -20
-100 -26 -153 -10 -80 -16 -98 -31 -103 -11 -4 -19 -11 -19 -16 0 -6 5 -7 10
-4 10 6 14 -12 10 -54 -2 -31 -47 -148 -71 -187 -10 -17 -19 -47 -19 -66 0
-36 -35 -150 -56 -183 -7 -11 -29 -63 -49 -115 -21 -52 -41 -99 -45 -105 -10
-12 -93 -221 -133 -335 l-30 -85 -3 -364 c-4 -350 -3 -366 16 -398 11 -19 20
-37 20 -40 0 -17 -384 56 -531 101 -26 8 -51 11 -55 6 -5 -4 -34 -18 -64 -31
-30 -13 -57 -26 -60 -30 -3 -4 -31 -21 -62 -37 -62 -33 -116 -40 -193 -27 -27
5 -55 8 -61 7 -6 -1 -16 9 -22 23 -7 14 -20 25 -31 25 -28 0 -91 -39 -91 -57
0 -12 -5 -11 -30 4 -25 14 -34 15 -50 5 -11 -6 -21 -12 -22 -12 -12 0 -5 102
11 175 11 50 25 126 30 170 5 44 21 114 36 155 58 171 64 199 62 325 -2 134
16 217 54 251 12 10 31 39 42 64 11 25 28 57 38 72 11 14 19 34 19 43 0 35
197 245 396 422 61 54 138 130 171 168 33 39 70 78 81 88 20 18 21 18 43 -2
27 -25 49 -27 49 -6 0 8 6 16 13 16 24 2 52 -3 64 -13 7 -5 27 -12 45 -15 18
-3 34 -6 36 -8 4 -4 -35 -82 -49 -99 -5 -6 -32 -47 -60 -91 -28 -44 -69 -100
-91 -125 -70 -79 -83 -94 -102 -125 -11 -16 -47 -59 -81 -95 -108 -114 -161
-185 -175 -233 -12 -44 -11 -69 6 -202 6 -50 -3 -92 -51 -224 -23 -63 -35
-173 -24 -218 11 -43 30 -218 30 -277 1 -26 -5 -42 -15 -48 -19 -11 -21 -48
-3 -48 8 0 22 9 31 19 10 11 31 25 47 31 20 9 29 19 29 35 0 12 6 27 13 33 17
15 23 669 7 781 -16 107 -7 126 144 281 45 47 102 110 126 142 116 146 145
177 170 177 18 1 21 4 11 10 -16 10 -12 19 64 146 67 110 72 116 102 104 16
-6 31 -5 45 2 19 10 65 7 124 -7 16 -4 23 0 27 17 4 16 11 20 24 15 9 -4 15
-4 11 -1 -7 7 -1 29 37 135 13 36 26 79 30 95 l7 30 11 -25 c10 -24 10 -24 18
15 4 22 8 64 8 93 1 34 7 59 16 68 8 9 15 26 15 40 0 44 16 25 18 -23z m-393
-222 c3 -6 -7 -21 -22 -35 -29 -27 -46 -28 -19 -1 9 9 16 23 16 31 0 16 16 19
25 5z m5678 -123 c-16 -31 -22 -37 -22 -22 -1 37 20 87 32 75 8 -8 5 -23 -10
-53z m-5948 33 c-3 -6 -11 -11 -17 -11 -6 0 -6 6 2 15 14 17 26 13 15 -4z
m6185 -32 c0 -20 -15 -26 -25 -9 -9 15 3 43 15 35 5 -3 10 -15 10 -26z m-6230
-9 c0 -5 -5 -10 -11 -10 -5 0 -7 5 -4 10 3 6 8 10 11 10 2 0 4 -4 4 -10z
m6266 -47 c-7 -7 -26 7 -26 19 0 6 6 6 15 -2 9 -7 13 -15 11 -17z m-399 -45
c-3 -8 -6 -5 -6 6 -1 11 2 17 5 13 3 -3 4 -12 1 -19z m103 -15 c-11 -17 -11
-17 -6 0 3 10 6 24 7 30 0 9 2 9 5 0 3 -7 0 -20 -6 -30z m518 -17 c43 -61 35
-71 -10 -14 -46 57 -54 72 -37 66 7 -2 28 -26 47 -52z m-538 -28 c0 -7 -7 -33
-16 -57 -34 -98 -55 -108 -29 -15 23 84 23 84 35 84 5 0 10 -6 10 -12z m-4434
-215 c5 -32 -14 -38 -26 -8 -13 35 -13 37 7 33 9 -2 18 -13 19 -25z m42 -48
c30 -66 21 -240 -17 -317 -11 -24 -21 -47 -21 -51 0 -4 -13 -36 -30 -70 -16
-35 -30 -69 -30 -74 0 -6 -17 -49 -38 -95 -46 -102 -176 -496 -184 -558 -2
-20 -13 -28 -52 -41 -58 -19 -78 -45 -50 -66 10 -7 26 -13 36 -13 15 0 16 -4
7 -27 -13 -35 -28 -204 -31 -355 l-2 -117 -25 5 c-14 3 -42 10 -61 15 -19 5
-85 9 -146 9 -122 0 -276 23 -311 46 -30 19 -30 60 2 239 26 148 29 159 95
380 23 77 45 154 50 170 4 17 14 48 22 70 9 22 18 56 22 76 8 47 62 117 199
263 62 65 127 140 144 167 38 56 51 65 66 50 6 -6 25 -11 42 -11 16 0 41 -9
55 -20 38 -29 61 -24 106 23 60 63 71 86 66 135 -5 46 14 60 21 15 l4 -28 14
33 c7 17 17 32 21 32 4 0 6 32 3 70 -4 73 4 88 23 45z m-321 -207 c-3 -8 -6
-5 -6 6 -1 11 2 17 5 13 3 -3 4 -12 1 -19z m5438 -238 c3 -5 1 -10 -4 -10 -6
0 -11 5 -11 10 0 6 2 10 4 10 3 0 8 -4 11 -10z m-5127 -76 c0 -23 -2 -24 -15
-11 -9 8 -12 20 -9 26 12 19 24 12 24 -15z m1385 -5 c-12 -12 -132 -41 -147
-36 -6 2 18 13 54 25 75 23 110 28 93 11z m3942 -30 c11 -17 0 -20 -21 -4 -17
13 -17 14 -2 15 9 0 20 -5 23 -11z m-5332 -270 c4 -15 11 -20 23 -15 9 3 22 1
30 -4 7 -6 18 -10 26 -9 7 2 23 0 35 -5 14 -4 35 0 60 11 38 18 73 20 73 3 0
-5 7 -7 17 -3 14 6 15 -1 9 -63 -4 -38 -9 -114 -11 -169 -6 -138 -12 -184 -41
-305 -34 -139 -45 -372 -21 -441 20 -58 13 -156 -12 -164 -9 -2 -50 -6 -91 -7
-73 -3 -77 -1 -197 57 -119 58 -123 61 -123 92 0 29 43 216 75 329 8 28 15 68
15 90 0 21 7 71 16 109 8 39 16 122 18 185 2 117 38 307 60 322 19 13 34 8 39
-13z m-193 -218 c0 -21 7 -58 15 -81 15 -42 20 -92 10 -102 -3 -2 -26 5 -51
16 -42 20 -45 23 -39 51 4 17 10 56 14 88 11 83 51 105 51 28z m1305 -37 c-14
-11 -16 -18 -7 -21 20 -8 3 -23 -27 -23 -35 0 -58 22 -39 37 19 15 39 21 68
22 25 0 25 0 5 -15z m727 -21 c22 -20 23 -39 2 -47 -23 -9 -34 2 -34 35 0 33
6 36 32 12z m-2037 -183 c-3 -5 -10 -10 -16 -10 -5 0 -9 5 -9 10 0 6 7 10 16
10 8 0 12 -4 9 -10z m-801 -35 c-27 -20 -51 -20 -34 0 7 8 22 15 33 15 20 0
20 0 1 -15z m1460 -56 c-11 -12 -28 -19 -43 -17 -26 3 -42 28 -18 28 8 0 28 7
43 15 35 18 45 3 18 -26z m-1568 -43 c-8 -20 -20 -36 -25 -36 -20 0 -11 49 11
64 29 21 32 15 14 -28z m7554 -356 c0 -5 -4 -10 -10 -10 -5 0 -10 5 -10 10 0
6 5 10 10 10 6 0 10 -4 10 -10z m-6812 -112 c29 -17 33 -24 19 -26 -22 -4
-110 38 -115 55 -5 17 48 1 96 -29z m1112 -58 c0 -11 -4 -20 -10 -20 -5 0 -10
9 -10 20 0 11 5 20 10 20 6 0 10 -9 10 -20z m-982 -6 c32 -9 27 -26 -5 -18
-32 8 -55 24 -32 24 7 0 24 -3 37 -6z m6795 -441 c-20 -8 -15 -23 7 -23 24 0
26 -22 4 -44 -19 -19 -54 -5 -54 21 0 20 29 53 44 52 6 0 6 -3 -1 -6z m-5255
-1167 c25 -133 6 -254 -47 -307 -14 -15 -51 -58 -81 -95 -30 -38 -101 -112
-158 -164 -57 -52 -131 -120 -164 -150 -89 -81 -165 -186 -215 -295 l-22 -50
6 50 c3 28 15 68 26 90 24 49 28 100 9 139 -10 20 -12 43 -7 75 4 25 6 69 6
98 -1 35 5 68 20 100 25 55 116 153 209 226 36 28 102 85 146 126 201 187 239
220 255 221 3 0 11 -29 17 -64z m-490 -1277 c23 -13 91 -49 150 -79 105 -54
128 -78 103 -103 -8 -8 -17 -7 -33 1 -76 37 -128 54 -163 54 -62 -1 -101 16
-130 54 -27 35 -48 91 -40 104 7 12 65 -4 113 -31z m2942 -153 c0 -39 -3 -44
-35 -59 -20 -9 -38 -17 -40 -17 -10 0 -4 28 14 63 40 79 61 83 61 13z m-2650
-37 c0 -5 -7 -9 -15 -9 -9 0 -12 6 -9 15 6 15 24 11 24 -6z m-4123 -576 c105
-103 284 -268 301 -277 9 -5 51 -44 92 -86 62 -64 90 -84 165 -120 50 -23 99
-45 110 -50 45 -17 76 -34 96 -53 14 -14 38 -21 77 -23 51 -3 193 -45 218 -65
6 -5 40 -15 77 -24 37 -8 100 -27 140 -42 53 -19 93 -27 152 -27 54 -1 91 -7
114 -19 19 -9 39 -17 45 -17 6 0 56 -17 111 -39 135 -53 314 -77 494 -66 75 4
136 12 153 21 15 8 60 21 100 29 108 23 267 75 313 104 22 13 58 39 81 58 24
19 52 33 69 33 25 0 27 -2 20 -27 -3 -16 -12 -35 -20 -43 -7 -8 -15 -24 -19
-36 -16 -53 -183 -143 -346 -186 -207 -55 -224 -57 -420 -52 -231 6 -374 31
-590 104 -30 10 -91 20 -135 23 -73 5 -154 24 -196 47 -9 5 -44 14 -77 20 -78
14 -148 37 -302 100 -69 29 -163 67 -210 86 -161 65 -234 110 -388 237 -48 40
-116 95 -151 121 -127 97 -215 259 -168 311 20 23 32 18 94 -42z m-1413 -850
c-3 -16 -15 -43 -25 -61 -11 -18 -19 -40 -19 -48 0 -8 -3 -14 -8 -14 -4 0 -16
-19 -26 -42 -10 -24 -21 -38 -23 -31 -2 7 5 33 16 59 12 26 21 51 21 55 0 9
62 107 68 108 1 1 0 -11 -4 -26z m8516 -202 c0 -6 -4 -13 -10 -16 -5 -3 -10 1
-10 9 0 9 5 16 10 16 6 0 10 -4 10 -9z m-8627 -26 c-3 -9 -8 -14 -10 -11 -3 3
-2 9 2 15 9 16 15 13 8 -4z m8852 -184 c-4 -36 -13 -77 -20 -91 -12 -22 -13
-16 -14 59 -1 81 10 118 31 105 6 -4 7 -32 3 -73z m5895 40 c0 -35 -45 -53
-79 -32 -20 13 -4 48 27 59 31 11 52 -1 52 -27z m-6278 -193 c-7 -7 -12 -8
-12 -2 0 14 12 26 19 19 2 -3 -1 -11 -7 -17z m-22 -48 c-6 -12 -14 -20 -17
-17 -2 3 1 14 8 26 17 26 24 19 9 -9z m6460 -50 c0 -5 -9 -10 -20 -10 -11 0
-20 5 -20 10 0 6 9 10 20 10 11 0 20 -4 20 -10z m-8647 -131 c4 -16 3 -18 -9
-8 -16 13 -19 29 -5 29 5 0 11 -9 14 -21z"/>
<path d="M8151 12360 c-112 -12 -287 -64 -317 -95 -17 -17 -44 -20 -44 -5 0
16 -30 12 -36 -5 -4 -8 -1 -22 6 -30 10 -12 9 -15 -4 -15 -9 0 -16 5 -16 11 0
19 -43 -15 -47 -37 -16 -97 -16 -94 3 -93 11 0 53 25 94 54 130 94 302 165
399 165 28 0 31 -2 22 -14 -10 -11 -8 -16 7 -20 25 -8 52 2 52 20 0 7 18 18
41 24 46 13 47 32 3 41 -37 8 -72 8 -163 -1z"/>
<path d="M6190 12325 c7 -8 17 -15 22 -15 6 0 5 7 -2 15 -7 8 -17 15 -22 15
-6 0 -5 -7 2 -15z"/>
<path d="M5954 12316 c-12 -32 3 -52 60 -82 63 -32 79 -50 50 -56 -11 -2 17
-31 89 -90 58 -49 110 -88 116 -88 14 0 14 27 1 35 -17 10 -11 36 13 56 l22
19 -27 -6 c-36 -8 -37 12 -3 28 31 14 31 25 2 61 -14 18 -46 36 -90 52 -37 13
-89 34 -115 48 -65 34 -110 43 -118 23z"/>
<path d="M6690 12322 c0 -5 7 -17 15 -28 8 -10 15 -27 15 -37 0 -10 20 -61 44
-115 25 -53 50 -119 57 -145 16 -64 6 -151 -26 -222 -14 -32 -25 -59 -25 -62
0 -2 13 5 30 17 22 16 35 38 51 92 33 114 21 174 -82 383 -53 108 -79 147 -79
117z"/>
<path d="M5723 12310 c-50 -12 -213 -111 -213 -130 0 -18 45 -10 90 14 131 72
152 80 183 68 28 -11 29 -10 22 16 -4 15 -7 28 -8 28 -11 8 -48 10 -74 4z"/>
<path d="M8682 12299 c9 -27 201 -108 212 -90 11 18 -23 42 -94 67 -107 36
-124 40 -118 23z"/>
<path d="M8996 11753 c-41 -64 -43 -173 -4 -173 6 0 25 -10 42 -23 47 -35 60
-38 201 -47 107 -6 133 -5 145 6 23 23 1 30 -95 33 -116 3 -215 25 -237 51
-14 18 -17 38 -14 106 1 46 -1 84 -6 84 -4 0 -19 -17 -32 -37z"/>
<path d="M9395 11752 c6 -4 11 -18 13 -32 1 -14 4 -31 7 -37 7 -20 25 -15 25
7 0 31 -22 70 -39 70 -9 0 -12 -3 -6 -8z"/>
<path d="M8384 11503 c-12 -26 -27 -64 -33 -83 -7 -19 -22 -57 -33 -85 -11
-27 -28 -75 -38 -105 -10 -30 -32 -89 -49 -130 -17 -41 -31 -81 -31 -87 0 -7
-4 -13 -10 -13 -5 0 -10 -9 -10 -20 0 -48 21 -15 81 130 12 30 26 60 30 65 6
8 33 77 64 160 4 11 11 36 15 55 5 19 16 55 25 79 24 65 15 94 -11 34z"/>
<path d="M8116 11426 c-9 -14 -16 -32 -16 -40 0 -8 -4 -18 -10 -21 -5 -3 -10
-14 -10 -25 0 -10 -11 -38 -25 -61 -14 -24 -25 -51 -25 -60 0 -9 -7 -22 -15
-29 -8 -7 -17 -28 -21 -49 -7 -42 -50 -182 -71 -229 -15 -35 -14 -62 2 -65 6
-1 17 25 25 58 8 33 18 65 21 70 4 6 10 26 14 45 4 19 17 48 29 65 11 16 19
38 18 49 -4 20 20 93 43 137 21 38 67 170 62 175 -2 3 -12 -7 -21 -20z"/>
<path d="M5817 11316 c-14 -29 -29 -71 -33 -92 -4 -21 -17 -61 -30 -89 -32
-69 -42 -135 -21 -135 16 0 28 27 51 125 8 33 23 81 35 107 20 44 39 138 29
138 -3 0 -17 -24 -31 -54z"/>
<path d="M5670 11335 c-7 -8 -21 -15 -31 -15 -23 0 -68 -47 -76 -80 -3 -14
-11 -32 -17 -40 -5 -8 -6 -12 -2 -8 5 4 15 3 23 -3 10 -9 13 -8 13 2 0 11 2
11 9 1 6 -10 10 -10 21 3 11 13 10 18 -6 30 -12 9 -14 14 -6 15 7 0 20 -7 29
-15 8 -8 19 -13 24 -10 14 9 11 25 -5 25 -18 0 -28 37 -11 44 7 2 16 2 19 -2
18 -18 31 -6 34 29 3 43 0 46 -18 24z"/>
<path d="M8529 11305 c-4 -5 -12 -35 -20 -65 -7 -30 -16 -59 -21 -64 -11 -13
-10 -123 1 -130 12 -8 21 18 21 56 0 17 7 57 16 90 14 57 16 135 3 113z"/>
<path d="M8765 11200 c-8 -13 -21 -76 -28 -135 -1 -12 4 -20 13 -20 10 0 15
10 16 30 0 17 4 42 8 56 4 15 6 40 4 55 -2 23 -5 26 -13 14z"/>
<path d="M5620 11174 c-12 -31 -13 -44 -2 -44 15 0 32 24 32 47 0 31 -18 29
-30 -3z"/>
<path d="M5847 10984 c-10 -14 -17 -32 -15 -42 3 -13 8 -9 22 16 22 42 17 58
-7 26z"/>
<path d="M6082 10915 c-7 -14 -12 -38 -12 -53 0 -16 -5 -33 -12 -40 -13 -13
-5 -27 11 -18 14 9 51 94 51 117 0 28 -25 23 -38 -6z"/>
<path d="M8442 10882 c-39 -80 -93 -245 -87 -263 4 -12 10 -17 14 -13 15 17
92 263 89 283 -3 19 -4 18 -16 -7z"/>
<path d="M5797 10894 c-4 -4 -7 -14 -7 -23 0 -11 3 -12 11 -4 6 6 10 16 7 23
-2 6 -7 8 -11 4z"/>
<path d="M5756 10823 c-14 -15 -26 -31 -26 -35 0 -5 -7 -8 -16 -8 -8 0 -12 -4
-9 -10 14 -23 45 -9 65 31 26 50 20 59 -14 22z"/>
<path d="M5691 10814 c0 -11 3 -14 6 -6 3 7 2 16 -1 19 -3 4 -6 -2 -5 -13z"/>
<path d="M6760 10519 c-106 -8 -355 -60 -472 -100 -126 -42 -164 -95 -177
-245 -9 -107 -8 -133 8 -163 7 -11 14 -58 17 -103 3 -46 12 -103 20 -128 7
-25 23 -76 34 -115 12 -38 28 -85 37 -104 8 -19 26 -76 38 -127 23 -93 39
-132 94 -233 22 -41 28 -63 24 -88 -3 -18 0 -54 7 -80 7 -27 14 -56 17 -65 3
-11 -1 -18 -11 -18 -8 0 -17 -4 -20 -8 -9 -14 31 -89 83 -155 28 -36 51 -67
51 -70 0 -3 10 -17 23 -30 22 -23 26 -23 232 -25 179 -2 226 1 328 20 103 19
126 20 176 10 82 -17 110 -15 185 13 37 14 75 25 87 25 11 0 55 14 98 30 101
39 161 96 225 213 41 75 48 97 53 161 12 157 -54 451 -134 596 -20 36 -60 110
-88 165 -29 55 -64 118 -78 140 -103 156 -158 229 -210 275 -16 14 -50 44 -75
66 -26 23 -60 48 -77 56 -56 28 -210 77 -275 87 -70 12 -66 12 -220 0z m276
-68 c15 -10 -5 -11 -103 -8 -68 2 -123 1 -123 -3 0 -13 215 -23 238 -11 22 12
55 5 46 -10 -3 -5 -68 -9 -144 -9 -77 0 -149 -4 -162 -9 -13 -5 -79 -19 -148
-32 -69 -12 -129 -26 -134 -31 -6 -4 -24 -8 -41 -8 -17 0 -41 -7 -53 -16 -19
-13 -22 -24 -22 -85 0 -87 -10 -88 -78 -12 -57 62 -65 94 -36 139 25 37 42 43
182 65 233 37 247 39 257 44 21 10 301 -2 321 -14z m129 -69 c-3 -3 -11 0 -18
7 -9 10 -8 11 6 5 10 -3 15 -9 12 -12z m105 -20 c19 -16 21 -23 13 -47 -5 -16
-15 -31 -22 -33 -9 -3 -11 2 -6 18 5 15 4 20 -4 16 -6 -4 -14 1 -17 11 -3 10
-10 26 -15 36 -13 24 21 23 51 -1z m-247 -19 c-24 -2 -62 -2 -85 0 -24 2 -5 4
42 4 47 0 66 -2 43 -4z m74 1 c-3 -3 -12 -4 -19 -1 -8 3 -5 6 6 6 11 1 17 -2
13 -5z m293 -83 c13 -25 13 -42 -1 -18 -5 9 -17 17 -24 17 -8 0 -15 5 -15 10
0 18 29 11 40 -9z m180 -405 c0 -2 -8 -10 -17 -17 -16 -13 -17 -12 -4 4 13 16
21 21 21 13z m-1105 -745 c3 -5 1 -12 -5 -16 -5 -3 -10 1 -10 9 0 18 6 21 15
7z m63 -31 c-9 -33 -13 -38 -25 -29 -17 14 -13 55 5 52 6 -2 12 2 12 7 0 6 4
10 9 10 5 0 4 -18 -1 -40z m24 -91 c4 -22 0 -32 -11 -36 -9 -2 -23 -8 -32 -13
-13 -7 -16 -5 -12 11 3 10 12 19 19 19 10 0 13 7 8 25 -4 18 -2 25 9 25 9 0
17 -12 19 -31z m1234 -51 c-39 -67 -109 -118 -207 -152 -69 -24 -81 -21 -106
29 -22 42 -30 104 -17 118 9 9 65 -14 100 -40 17 -12 39 -23 50 -23 23 0 79
33 117 68 20 19 30 23 35 15 6 -9 13 -5 26 12 30 39 31 21 2 -27z m-1166 -49
c16 -30 70 -59 110 -59 19 0 55 -7 80 -16 27 -9 97 -18 173 -21 138 -7 157
-17 90 -48 -27 -13 -72 -19 -169 -23 l-133 -5 -12 26 c-8 17 -23 28 -43 32
-141 28 -177 38 -186 55 -14 27 -14 28 25 44 19 8 35 20 35 25 0 18 19 12 30
-10z m750 -29 c0 -5 -5 -10 -11 -10 -5 0 -7 5 -4 10 3 6 8 10 11 10 2 0 4 -4
4 -10z m40 -100 c-8 -5 -22 -9 -30 -9 -10 0 -8 3 5 9 27 12 43 12 25 0z m-755
-50 c3 -5 -1 -10 -10 -10 -9 0 -13 5 -10 10 3 6 8 10 10 10 2 0 7 -4 10 -10z"/>
<path d="M6120 9767 c0 -7 7 -22 15 -33 14 -18 14 -17 15 14 0 22 -5 32 -15
32 -8 0 -15 -6 -15 -13z"/>
<path d="M9550 9080 c0 -5 7 -10 15 -10 8 0 15 5 15 10 0 6 -7 10 -15 10 -8 0
-15 -4 -15 -10z"/>
<path d="M10256 8475 c-11 -8 -15 -15 -9 -15 6 0 16 7 23 15 16 19 11 19 -14
0z"/>
<path d="M7962 4263 c2 -10 30 -32 63 -50 85 -46 172 -44 163 3 -3 15 -13 19
-56 21 -29 2 -71 12 -94 23 -53 25 -81 26 -76 3z"/>
<path d="M9363 3345 c-10 -15 -31 -43 -48 -62 -24 -29 -30 -47 -33 -99 -2 -35
-1 -89 3 -119 13 -111 73 -127 121 -32 26 50 27 56 20 162 -9 166 -25 204 -63
150z"/>
<path d="M9022 3059 c-7 -11 -11 -23 -9 -25 7 -7 29 24 25 36 -2 6 -9 1 -16
-11z"/>
<path d="M8949 2918 c-47 -38 -65 -102 -27 -96 14 2 25 15 35 43 17 51 14 71
-8 53z"/>
<path d="M11186 10208 c-34 -127 -37 -132 -113 -205 -41 -40 -95 -82 -119 -93
-45 -22 -50 -22 -116 5 -39 16 -11 -66 29 -84 40 -18 85 -13 129 17 85 56 156
127 184 182 31 62 55 153 46 175 -7 18 -35 20 -40 3z"/>
<path d="M10317 9413 c-4 -3 -7 -12 -7 -20 0 -11 4 -11 20 -3 11 6 18 15 15
21 -7 11 -19 12 -28 2z"/>
<path d="M10155 9400 c-17 -7 -17 -9 -2 -9 9 -1 17 -5 17 -11 0 -5 11 -10 25
-10 14 0 25 5 25 10 0 6 7 10 16 10 8 0 12 5 9 10 -7 12 -62 12 -90 0z"/>
<path d="M10285 9360 c-3 -6 1 -7 9 -4 18 7 21 14 7 14 -6 0 -13 -4 -16 -10z"/>
<path d="M10045 9350 c-3 -5 -1 -10 4 -10 6 0 11 5 11 10 0 6 -2 10 -4 10 -3
0 -8 -4 -11 -10z"/>
<path d="M9928 9133 c7 -3 16 -2 19 1 4 3 -2 6 -13 5 -11 0 -14 -3 -6 -6z"/>
<path d="M10015 9100 c3 -5 10 -10 16 -10 5 0 9 5 9 10 0 6 -7 10 -16 10 -8 0
-12 -4 -9 -10z"/>
<path d="M10190 9870 c-8 -5 -12 -11 -9 -14 2 -3 11 -1 19 4 8 5 12 11 9 14
-2 3 -11 1 -19 -4z"/>
<path d="M4590 8486 c-6 -9 -10 -21 -7 -28 4 -9 6 -7 6 4 1 9 7 18 14 21 6 2
9 7 6 11 -3 4 -12 0 -19 -8z"/>
<path d="M4313 8453 c-15 -21 -34 -42 -40 -46 -7 -4 -13 -13 -13 -19 0 -6 -10
-19 -22 -29 -11 -11 -17 -19 -11 -19 5 0 27 18 47 40 20 22 40 39 44 36 10 -5
41 63 31 69 -4 3 -20 -12 -36 -32z"/>
<path d="M4915 8480 c-3 -5 -1 -10 4 -10 6 0 11 5 11 10 0 6 -2 10 -4 10 -3 0
-8 -4 -11 -10z"/>
<path d="M4546 8194 c-8 -21 -4 -25 14 -14 11 7 12 12 4 20 -8 8 -13 7 -18 -6z"/>
<path d="M4350 8155 c0 -8 4 -15 9 -15 5 0 11 7 15 15 3 9 0 15 -9 15 -8 0
-15 -7 -15 -15z"/>
<path d="M4400 8013 c-19 -22 -22 -43 -4 -36 8 3 14 11 14 19 0 8 5 14 10 14
6 0 10 5 10 10 0 15 -13 12 -30 -7z"/>
<path d="M6956 3252 c-3 -3 -6 -9 -6 -14 0 -11 37 -10 44 1 6 10 -30 22 -38
13z"/>
<path d="M11216 16812 c9 -8 49 -21 132 -41 20 -6 59 -15 85 -22 26 -6 50 -9
53 -6 8 7 -79 47 -103 47 -10 0 -40 7 -67 15 -53 16 -116 20 -100 7z"/>
<path d="M12110 16774 c0 -8 5 -12 10 -9 6 3 10 10 10 16 0 5 -4 9 -10 9 -5 0
-10 -7 -10 -16z"/>
<path d="M14674 15389 c-10 -17 13 -36 27 -22 12 12 4 33 -11 33 -5 0 -12 -5
-16 -11z"/>
<path d="M3049 14665 c-44 -24 -62 -76 -54 -156 6 -54 13 -77 33 -100 23 -28
29 -30 66 -24 57 9 82 28 106 80 22 49 26 106 9 155 -19 53 -102 76 -160 45z
m111 -70 c17 -20 6 -102 -18 -135 -20 -26 -81 -45 -96 -30 -15 15 -8 84 14
134 18 42 22 46 53 46 19 0 40 -7 47 -15z"/>
<path d="M2508 14489 c-11 -6 -18 -22 -18 -40 0 -27 2 -28 20 -17 16 11 22 9
40 -9 24 -26 25 -36 5 -53 -11 -9 -22 -9 -45 -2 -30 11 -36 7 -22 -14 10 -15
47 -34 66 -34 22 0 46 52 46 97 0 68 -43 101 -92 72z"/>
<path d="M3200 13703 c-14 -2 -36 -13 -50 -23 -22 -17 -23 -22 -13 -39 14 -23
4 -32 -50 -45 -49 -12 -105 -73 -123 -134 -16 -54 -16 -66 3 -209 4 -33 1 -44
-10 -49 -18 -7 -65 16 -90 43 -16 18 -87 154 -87 167 0 3 -14 34 -31 69 -31
67 -56 87 -107 87 -40 0 -89 -34 -110 -77 -48 -94 -78 -265 -63 -349 20 -106
16 -125 -35 -177 l-46 -48 4 -112 c4 -101 7 -118 35 -172 48 -93 103 -149 191
-192 66 -33 87 -38 161 -42 100 -4 236 13 330 41 36 11 105 30 153 43 90 23
143 50 264 129 89 58 116 81 156 136 63 85 78 135 78 255 0 51 -6 113 -14 139
-38 125 -159 233 -296 262 -19 4 -41 7 -47 5 -7 -1 -24 4 -38 12 -24 12 -26
19 -29 93 -3 95 -23 146 -68 174 -18 11 -35 19 -38 18 -3 0 -16 -3 -30 -5z
m46 -71 c39 -25 65 -147 49 -228 -9 -41 2 -47 84 -49 84 -2 152 -36 234 -113
87 -83 116 -172 96 -294 -28 -174 -218 -337 -476 -409 -43 -12 -104 -30 -136
-40 -33 -10 -117 -24 -187 -31 -156 -14 -211 -5 -297 51 -127 83 -180 181
-175 330 2 38 8 49 45 83 l42 40 1 161 c0 130 4 175 20 226 20 68 80 147 100
134 13 -9 100 -182 133 -264 28 -71 66 -96 132 -85 24 4 53 8 64 9 91 9 295
241 295 335 0 10 -20 35 -45 56 -42 36 -57 71 -38 89 9 9 45 9 59 -1z m-73
-125 c10 -6 20 -28 23 -47 5 -31 0 -43 -36 -88 -28 -36 -51 -55 -71 -59 -16
-3 -32 -10 -35 -14 -7 -12 -34 -11 -34 1 0 6 9 10 20 10 11 0 20 7 20 15 0 8
5 15 10 15 6 0 10 5 10 10 0 6 12 29 26 51 32 51 29 83 -8 87 -22 3 -27 -1
-33 -30 -4 -18 -11 -37 -15 -43 -4 -5 -11 -25 -15 -42 -7 -34 -25 -55 -25 -29
0 48 24 115 51 144 33 35 80 43 112 19z m-183 -317 c0 -5 -2 -10 -4 -10 -3 0
-8 5 -11 10 -3 6 -1 10 4 10 6 0 11 -4 11 -10z"/>
<path d="M3399 13065 c-1 -3 -2 -9 -3 -14 0 -5 -4 -13 -8 -17 -11 -11 -10 -52
2 -75 10 -18 13 -18 40 -4 35 18 36 25 13 77 -14 32 -40 51 -44 33z"/>
<path d="M2856 12874 c-24 -21 -27 -29 -19 -43 6 -9 19 -15 29 -13 24 4 77 60
69 72 -11 18 -50 10 -79 -16z"/>
<path d="M3240 12882 c-13 -9 -34 -27 -47 -39 -14 -15 -34 -23 -58 -23 -41 0
-45 -13 -10 -36 17 -11 33 -14 52 -9 16 4 49 9 75 11 76 4 108 32 75 66 -7 7
-16 21 -20 31 -8 21 -35 21 -67 -1z"/>
<path d="M17323 13636 c-17 -8 -39 -25 -48 -39 -24 -38 -62 -205 -70 -312 -4
-52 -11 -97 -15 -100 -4 -3 -45 -8 -91 -11 -67 -5 -87 -4 -96 8 -7 7 -26 52
-43 98 -38 103 -93 204 -123 225 -74 52 -142 -29 -194 -230 -15 -58 -14 -119
2 -255 5 -41 3 -48 -30 -85 -75 -85 -90 -154 -57 -263 35 -112 123 -213 229
-264 124 -59 270 -59 505 2 221 56 350 120 487 240 47 42 61 61 61 82 0 37 -9
35 -42 -6 -65 -81 -263 -203 -388 -239 -236 -68 -251 -70 -395 -71 -137 -1
-141 0 -206 30 -124 59 -210 179 -217 305 -5 77 7 106 69 169 l42 42 -13 87
c-22 145 -8 246 51 363 23 46 34 58 53 58 35 0 77 -72 126 -215 23 -66 46
-126 52 -132 6 -7 20 -11 32 -8 60 14 182 21 198 11 30 -18 38 5 48 130 11
136 14 153 42 249 22 77 38 94 85 95 48 0 60 -27 68 -151 4 -58 10 -111 15
-119 5 -8 39 -16 86 -20 93 -8 137 -27 219 -92 33 -26 63 -48 67 -48 5 0 8 10
8 23 0 16 -18 36 -65 70 -83 62 -140 87 -218 95 l-62 7 -7 74 c-10 121 -18
159 -36 181 -22 27 -86 35 -129 16z"/>
<path d="M1278 13556 c-40 -18 -63 -53 -92 -144 -20 -64 -26 -105 -27 -180 -1
-135 -6 -148 -49 -143 -42 5 -64 4 -108 -5 -42 -8 -66 12 -81 69 -12 49 -84
219 -106 254 -12 18 -25 23 -54 23 -77 0 -132 -79 -172 -246 -17 -74 -20 -105
-14 -190 l7 -102 -43 -73 c-42 -70 -44 -78 -44 -150 0 -69 4 -83 40 -154 59
-115 110 -167 200 -205 146 -60 241 -60 465 0 58 15 121 31 140 35 67 13 245
98 315 150 69 51 156 149 188 210 22 45 35 151 27 225 -10 88 -48 166 -112
229 -71 70 -134 99 -233 108 l-80 8 -12 100 c-6 55 -12 110 -12 123 -2 57 -77
88 -143 58z m69 -56 c17 0 30 -51 43 -164 6 -55 13 -102 16 -105 3 -3 40 -8
83 -11 160 -12 290 -122 328 -277 47 -188 -80 -373 -333 -489 -178 -81 -503
-153 -605 -134 -72 14 -158 50 -195 83 -20 16 -56 59 -81 94 -35 49 -47 77
-56 128 -13 77 -5 106 54 199 42 66 46 94 29 185 -14 76 2 173 45 274 37 85
38 87 72 87 33 0 36 -3 67 -72 19 -40 48 -115 65 -167 17 -52 39 -100 49 -107
22 -17 54 -18 70 -2 7 7 47 13 94 15 45 2 86 7 92 13 6 6 14 70 17 143 8 136
12 157 48 242 29 65 40 78 65 71 12 -3 26 -6 33 -6z"/>
<path d="M1502 12873 c3 -50 6 -58 23 -58 47 0 44 107 -3 113 -22 3 -23 1 -20
-55z"/>
<path d="M1001 12764 c-30 -25 -61 -72 -61 -92 0 -6 6 -12 14 -15 9 -4 24 9
41 33 14 21 35 40 46 43 22 6 25 30 5 46 -11 9 -21 6 -45 -15z"/>
<path d="M1344 12739 c-26 -28 -87 -59 -119 -59 -34 0 -33 -28 2 -36 17 -5 37
-1 56 9 21 12 34 14 47 7 33 -18 59 -11 97 25 l37 35 -32 0 c-21 0 -35 6 -42
20 -14 25 -22 25 -46 -1z"/>
<path d="M15435 13500 c-37 -14 -92 -86 -109 -142 -16 -56 -32 -152 -42 -251
-3 -32 -11 -60 -17 -61 -62 -16 -105 -28 -118 -32 -9 -3 -29 6 -46 20 -24 20
-41 54 -75 148 -51 144 -84 188 -142 188 -27 0 -44 -7 -62 -27 -85 -92 -120
-229 -109 -428 l6 -120 -30 -17 c-74 -41 -84 -175 -26 -328 21 -56 38 -80 86
-125 151 -139 297 -157 612 -75 258 67 312 90 427 182 162 129 210 215 210
376 0 108 -13 152 -67 229 -70 100 -159 152 -278 162 l-69 6 -7 35 c-4 19 -10
72 -13 118 -6 95 -15 115 -53 130 -50 18 -58 19 -78 12z m61 -58 c5 -4 18 -68
27 -142 10 -74 21 -138 25 -142 4 -4 44 -9 89 -11 89 -5 118 -17 200 -84 87
-72 126 -184 106 -311 -13 -86 -34 -129 -91 -193 -94 -105 -212 -178 -362
-222 -316 -94 -427 -105 -568 -55 -163 57 -281 252 -234 385 23 63 30 73 52
73 10 0 22 6 27 13 4 6 8 100 8 207 0 188 1 197 26 250 19 41 36 61 66 77 38
21 41 22 56 5 13 -14 55 -125 109 -289 15 -43 54 -56 128 -44 30 5 68 15 83
22 25 11 30 11 38 -4 6 -9 16 -17 24 -17 22 0 35 57 35 151 0 152 42 282 104
320 35 21 37 22 52 11z"/>
<path d="M15633 12854 c-6 -17 4 -125 13 -133 11 -11 54 54 54 80 0 25 -32 69
-51 69 -5 0 -12 -7 -16 -16z"/>
<path d="M15112 12676 c-24 -48 -27 -62 -12 -71 13 -8 60 35 60 55 0 9 5 21
11 27 14 14 3 33 -20 33 -11 0 -26 -17 -39 -44z"/>
<path d="M15517 12656 c-10 -8 -27 -12 -37 -9 -13 4 -20 0 -20 -10 0 -28 -53
-31 -73 -3 -9 13 -39 -22 -34 -39 2 -5 40 -11 84 -13 74 -3 83 -1 112 24 34
28 39 49 15 58 -21 8 -26 7 -47 -8z"/>
<path d="M17562 13008 c-17 -21 -26 -104 -12 -113 22 -13 44 22 44 71 1 48
-12 65 -32 42z"/>
<path d="M17046 12855 c-9 -9 -16 -21 -16 -27 0 -6 -7 -16 -16 -22 -18 -13 -9
-46 13 -46 26 0 65 48 61 77 -4 32 -20 39 -42 18z"/>
<path d="M17406 12814 c-22 -8 -63 -17 -92 -20 -63 -8 -84 -18 -67 -35 18 -18
194 -7 227 15 59 38 8 69 -68 40z"/>
<path d="M10167 1836 c-6 -15 1 -26 15 -26 11 0 10 27 -1 34 -5 3 -11 0 -14
-8z"/>
<path d="M11605 20 c-18 -20 -17 -20 20 -20 30 0 36 3 31 16 -3 9 -6 18 -6 20
0 12 -29 1 -45 -16z"/>
</g>
</svg>
